<svg width="197" height="126" viewBox="0 0 197 126" fill="none" xmlns="http://www.w3.org/2000/svg">
<g clip-path="url(#clip0_12_53)">
<path d="M91.8272 109.203C65.7314 105.979 41.863 97.4455 24.6173 85.1793C7.08685 72.7036 -1.57348 57.7776 0.234499 43.1511C2.04248 28.5245 14.079 16.1536 34.1217 8.32379C53.8446 0.62376 79.0765 -1.84145 105.167 1.37729C131.263 4.60103 155.132 13.1344 172.382 25.4006C189.913 37.8713 198.573 52.7973 196.765 67.4239C194.957 82.0504 182.92 94.4214 162.878 102.251C143.16 109.956 117.928 112.421 91.8322 109.198L91.8272 109.203ZM104.818 4.23174C79.0165 1.04294 54.1093 3.46823 34.681 11.0585C15.5774 18.524 4.14513 30.0216 2.48199 43.4305C0.823841 56.8394 9.10959 70.7724 25.8209 82.6592C42.8169 94.7507 66.3806 103.159 92.1818 106.348C117.983 109.537 142.89 107.112 162.318 99.5214C181.422 92.061 192.854 80.5633 194.513 67.1544C196.171 53.7455 187.885 39.8126 171.174 27.9257C154.178 15.8392 130.614 7.42553 104.813 4.23673L104.818 4.23174Z" fill="#FF3936"/>
<path d="M65.9963 41.7788C64.2932 39.2537 61.6511 37.7715 58.0601 37.3274C54.4691 36.8833 51.018 37.9063 48.0513 40.4463C45.0796 42.9814 43.3366 46.3249 42.8222 50.4718C42.3077 54.6188 43.1867 58.2817 45.4492 61.4655C47.7117 64.6493 50.6934 66.4657 54.3992 66.9249C57.9902 67.369 60.9169 66.5705 63.1794 64.5345L62.8548 67.1694L71.2654 68.2074L76.12 28.9737L67.7094 27.9357L65.9963 41.7837V41.7788ZM62.1206 57.9174C60.7322 58.9953 59.049 59.4145 57.0662 59.1699C55.0835 58.9254 53.5502 58.112 52.4714 56.7247C51.3876 55.3374 50.978 53.6008 51.2378 51.5048C51.4975 49.4089 52.3166 47.827 53.705 46.7441C55.0885 45.6662 56.7766 45.247 58.7544 45.4915C60.7371 45.7361 62.2704 46.5495 63.3492 47.9368C64.428 49.3241 64.8426 51.0607 64.5829 53.1566C64.3231 55.2526 63.4991 56.8345 62.1156 57.9174H62.1206Z" fill="#FF3936"/>
<path d="M80.9073 40.9496L77.439 68.9713L85.8504 70.0106L89.3187 41.989L80.9073 40.9496Z" fill="#FF3936"/>
<path d="M86.6632 28.9088C85.2797 28.7391 84.0311 29.0884 82.9174 29.9568C81.8036 30.8251 81.1643 31.9479 80.9895 33.3302C80.8197 34.7175 81.1643 35.9651 82.0334 37.0779C82.9024 38.1907 84.0311 38.8295 85.4146 38.9992C86.798 39.1688 88.0467 38.8245 89.1604 37.9562C90.2742 37.0879 90.9184 35.9651 91.0883 34.5778C91.2581 33.1955 90.9085 31.9479 90.0394 30.835C89.1704 29.7222 88.0467 29.0785 86.6632 28.9088Z" fill="#FF3936"/>
<path d="M102.83 59.5892L108.724 60.3177C112.569 60.7918 115.99 59.8836 118.967 57.598C121.944 55.3125 123.662 52.3033 124.126 48.5656C124.591 44.8279 123.652 41.4893 121.324 38.5451C118.992 35.6008 115.901 33.8891 112.05 33.415L97.1864 31.5786L92.3319 70.8123L101.302 71.9202L102.825 59.5941L102.83 59.5892ZM105.118 41.0951L111.011 41.8237C112.394 41.9934 113.473 42.6172 114.252 43.7C115.032 44.7829 115.331 46.0305 115.156 47.4577C114.982 48.885 114.387 50.0178 113.368 50.8761C112.355 51.7394 111.151 52.0788 109.767 51.9091L103.874 51.1805L105.123 41.0951H105.118Z" fill="#FF3936"/>
<path d="M152.24 78.2079L155.706 50.1874L147.29 49.1494L146.966 51.7843C145.268 49.2592 142.626 47.7771 139.03 47.333C135.434 46.8888 131.993 47.9118 129.021 50.4519C126.049 52.987 124.306 56.3305 123.797 60.4774C123.282 64.6243 124.156 68.2872 126.424 71.471C128.686 74.6548 131.668 76.4713 135.369 76.9304C139.07 77.3895 141.887 76.5761 144.149 74.5401L143.824 77.1749L152.24 78.2129V78.2079ZM143.09 67.9179C141.707 68.9958 140.019 69.415 138.036 69.1705C136.053 68.926 134.525 68.1126 133.441 66.7253C132.362 65.338 131.953 63.6013 132.207 61.5054C132.467 59.4095 133.286 57.8276 134.675 56.7447C136.063 55.6668 137.746 55.2476 139.729 55.4921C141.712 55.7366 143.245 56.55 144.324 57.9373C145.403 59.3246 145.812 61.0613 145.557 63.1572C145.298 65.2531 144.479 66.835 143.09 67.9179Z" fill="#FF3936"/>
<path d="M114.502 114.098C116.685 117.022 117.848 121.309 118.408 125.995C118.962 121.304 120.131 117.017 122.313 114.098C122.503 113.844 122.738 113.619 122.963 113.395C123.187 113.17 123.407 112.935 123.667 112.746C126.594 110.565 130.884 109.402 135.574 108.843C130.879 108.289 126.589 107.122 123.667 104.941C123.412 104.751 123.187 104.517 122.963 104.292C122.738 104.068 122.503 103.848 122.313 103.589C120.131 100.664 118.967 96.3776 118.408 91.6917C117.853 96.3826 116.685 100.669 114.502 103.589C114.312 103.843 114.078 104.068 113.853 104.292C113.628 104.517 113.403 104.751 113.149 104.941C110.222 107.122 105.932 108.284 101.242 108.843C105.937 109.397 110.227 110.565 113.149 112.746C113.403 112.935 113.628 113.17 113.853 113.395C114.078 113.619 114.312 113.839 114.502 114.098Z" fill="#FF3936"/>
</g>
<defs>
<clipPath id="clip0_12_53">
<rect width="197" height="126" fill="white"/>
</clipPath>
</defs>
</svg>